<?xml version="1.0" encoding="UTF-8"?>
<!DOCTYPE svg PUBLIC "-//W3C//DTD SVG 1.0//EN" "http://www.w3.org/TR/2001/REC-SVG-20010904/DTD/svg10.dtd">
<!-- Creator: CorelDRAW 2017 -->
<svg xmlns="http://www.w3.org/2000/svg" xml:space="preserve" width="24px" height="29px" version="1.0" style="shape-rendering:geometricPrecision; text-rendering:geometricPrecision; image-rendering:optimizeQuality; fill-rule:evenodd; clip-rule:evenodd"
viewBox="0 0 0.038 0.047"
 xmlns:xlink="http://www.w3.org/1999/xlink">
 <defs>
  <style type="text/css">
   <![CDATA[
    .fil0 {fill:white}
   ]]>
  </style>
 </defs>
 <g id="Слой_x0020_1">
  <metadata id="CorelCorpID_0Corel-Layer"/>
  <path class="fil0" d="M0.034 0.031c0,0 -0.001,0 -0.001,0l-0.002 -0.002 -0.011 0.011c-0.003,0.004 -0.009,0.004 -0.013,0l-0.004 -0.004c-0.004,-0.004 -0.004,-0.01 0,-0.013l0 0 0 -0.015c0,-0.004 0.003,-0.008 0.008,-0.008 0.004,0 0.007,0.004 0.007,0.008l0 0.005 0.016 0.016c0,0 0,0 0,0 0.001,0.001 0,0.001 0,0.002zm-0.018 -0.023c0,-0.003 -0.002,-0.006 -0.005,-0.006 -0.004,0 -0.006,0.003 -0.006,0.006l0 0.013 0.009 -0.009 -0.001 -0.001c-0.001,-0.001 -0.001,-0.001 0,-0.002 0,0 0.001,0 0.001,0l0.002 0.002 0 -0.003zm0.001 0.016c-0.001,0 -0.002,0.001 -0.002,0.002 0,0.002 0.001,0.003 0.002,0.003 0.001,0 0.002,-0.001 0.002,-0.003 0,-0.001 -0.001,-0.002 -0.002,-0.002zm0.001 -0.008l0 0.006c0.002,0.001 0.003,0.003 0.003,0.004 0,0.003 -0.001,0.004 -0.003,0.005 -0.003,0 -0.005,-0.002 -0.005,-0.004 -0.001,-0.002 0.001,-0.004 0.003,-0.005l0 -0.008 -0.001 -0.001 -0.01 0.011 -0.001 0c-0.003,0.003 -0.003,0.008 0,0.01l0.005 0.005c0,0 0,0 0,0 0.003,0.003 0.007,0.003 0.01,0l0.011 -0.011 -0.012 -0.012zm0.019 0.029l0 0.001c-0.001,0 -0.002,0.001 -0.004,0.001 -0.001,0 -0.002,-0.001 -0.003,-0.002 -0.002,-0.001 -0.002,-0.004 0,-0.006l0.003 -0.003c0,0 0.001,0 0.001,0l0.003 0.003c0.002,0.002 0.002,0.005 0,0.006zm-0.002 -0.005l-0.002 -0.002 -0.002 0.002c-0.001,0.001 -0.001,0.003 0,0.004 0.001,0.001 0.002,0.001 0.002,0.001 0.001,0 0.002,0 0.002,-0.001 0.001,-0.001 0.001,-0.003 0,-0.004z"/>
 </g>
</svg>
