<svg xmlns="http://www.w3.org/2000/svg"
     width="17px"
     height="16px"
     viewBox="0 0 0.02 0.018">
  <path d="M0.019 0.016l-0.018 0c-0.001,0 -0.001,0 -0.001,0.001 0,0 0,0.001 0.001,0.001l0.018 0c0,0 0.001,-0.001 0.001,-0.001 0,-0.001 -0.001,-0.001 -0.001,-0.001zm-0.018 -0.014l0.018 0c0,0 0.001,0 0.001,-0.001 0,-0.001 -0.001,-0.001 -0.001,-0.001l-0.018 0c-0.001,0 -0.001,0 -0.001,0.001 0,0.001 0,0.001 0.001,0.001zm0.018 0.006l-0.018 0c-0.001,0 -0.001,0 -0.001,0.001 0,0.001 0,0.001 0.001,0.001l0.018 0c0,0 0.001,0 0.001,-0.001 0,-0.001 -0.001,-0.001 -0.001,-0.001z"/>
</svg>
