<svg xmlns="http://www.w3.org/2000/svg"
     width="11px"
     height="8px">
<path d="M10.894,1.506 L10.372,0.967 C10.302,0.895 10.222,0.859 10.132,0.859 C10.041,0.859 9.961,0.895 9.892,0.967 L5.789,5.209 L1.687,0.967 C1.617,0.895 1.537,0.859 1.447,0.859 C1.356,0.859 1.276,0.895 1.207,0.967 L0.685,1.507 C0.615,1.579 0.580,1.661 0.580,1.755 C0.580,1.848 0.615,1.931 0.685,2.003 L5.549,7.033 C5.619,7.105 5.699,7.141 5.789,7.141 C5.880,7.141 5.960,7.105 6.029,7.033 L10.894,2.003 C10.963,1.931 10.998,1.848 10.998,1.755 C10.998,1.661 10.963,1.579 10.894,1.506 Z"/>
</svg>