<svg xmlns="http://www.w3.org/2000/svg"
     viewBox="0 0 0.126747 0.12896">
  <polygon class="fil0"
           points="0.124232,0.000277894 0.0237392,0.000277894 0.0237392,0.00530764 0.0616824,0.00530764 0.0629398,0.00530764 0.0629398,0.00656508 0.0629398,0.122673 0.0629398,0.123931 0.0616824,0.123931 0.00629222,0.123931 0.00503478,0.123931 0.00503478,0.122673 0.00503478,0 5.02975e-006,0 5.02975e-006,0.126445 -0,0.126445 1.25744e-006,0.12896 0.00251991,0.12896 0.125766,0.12896 0.125766,0.123931 0.069227,0.123931 0.0679695,0.123931 0.0679695,0.122673 0.0679695,0.00656508 0.0679695,0.00530764 0.069227,0.00530764 0.12046,0.00530764 0.121717,0.00530764 0.121717,0.00656508 0.121717,0.104395 0.126747,0.104395 0.126747,0.00279277 0.126747,0.000277894 "/>
</svg>
