<svg xmlns="http://www.w3.org/2000/svg"
     width="23px"
     height="28px"
     viewBox="0 0 23 28">
<path d="M22.763,26.524 L22.763,27.820 L19.599,27.820 L19.599,26.524 L20.538,26.524 L20.538,6.549 L19.599,6.549 L19.599,5.252 L22.763,5.252 L22.763,6.549 L21.824,6.549 L21.824,26.524 L22.763,26.524 ZM0.443,5.252 L17.639,5.252 L17.639,27.820 L0.443,27.820 L0.443,5.252 ZM1.837,26.416 L16.245,26.416 L16.245,6.658 L1.837,6.658 L1.837,26.416 ZM16.277,2.461 L1.805,2.461 L1.805,3.406 L0.518,3.406 L0.518,0.219 L1.805,0.219 L1.805,1.164 L16.277,1.164 L16.277,0.219 L17.564,0.219 L17.564,3.406 L16.277,3.406 L16.277,2.461 Z"/>
</svg>